<?xml version="1.0" encoding="utf-8"?>
<!-- Generator: Adobe Illustrator 17.1.0, SVG Export Plug-In . SVG Version: 6.00 Build 0)  -->
<!DOCTYPE svg PUBLIC "-//W3C//DTD SVG 1.1//EN" "http://www.w3.org/Graphics/SVG/1.1/DTD/svg11.dtd">
<svg version="1.1" xmlns="http://www.w3.org/2000/svg" xmlns:xlink="http://www.w3.org/1999/xlink" x="0px" y="0px"
	 viewBox="0 0 148.4 248.6" enable-background="new 0 0 148.4 248.6" xml:space="preserve">
<pattern  x="-232.1" y="525.5" width="72" height="72" patternUnits="userSpaceOnUse" id="Diagonal_Lines" viewBox="28.9 -76.6 72 72" overflow="visible">
	<g>
		<polygon fill="none" points="28.9,-4.6 28.9,-76.6 100.9,-76.6 100.9,-4.6 		"/>
		<line fill="#FFFFFF" x1="5.1" y1="-10.6" x2="11.1" y2="-4.6"/>
		<line fill="#FFFFFF" x1="5.1" y1="-4.6" x2="11.1" y2="-10.6"/>
		<line fill="none" stroke="#1D1D1B" stroke-width="0.3" stroke-linejoin="round" x1="21.4" y1="-66.1" x2="39.4" y2="-84.1"/>
		<line fill="none" stroke="#1D1D1B" stroke-width="0.3" stroke-linejoin="round" x1="21.4" y1="-60.1" x2="45.4" y2="-84.1"/>
		<line fill="none" stroke="#1D1D1B" stroke-width="0.3" stroke-linejoin="round" x1="21.4" y1="-54.1" x2="51.4" y2="-84.1"/>
		<line fill="none" stroke="#1D1D1B" stroke-width="0.3" stroke-linejoin="round" x1="21.4" y1="-48.1" x2="57.4" y2="-84.1"/>
		<line fill="none" stroke="#1D1D1B" stroke-width="0.3" stroke-linejoin="round" x1="21.4" y1="-42.1" x2="63.4" y2="-84.1"/>
		<line fill="none" stroke="#1D1D1B" stroke-width="0.3" stroke-linejoin="round" x1="21.4" y1="-36.1" x2="69.4" y2="-84.1"/>
		<line fill="none" stroke="#1D1D1B" stroke-width="0.3" stroke-linejoin="round" x1="21.4" y1="-30.1" x2="75.4" y2="-84.1"/>
		<line fill="none" stroke="#1D1D1B" stroke-width="0.3" stroke-linejoin="round" x1="21.4" y1="-24.1" x2="81.4" y2="-84.1"/>
		<line fill="none" stroke="#1D1D1B" stroke-width="0.3" stroke-linejoin="round" x1="21.4" y1="-18.1" x2="87.4" y2="-84.1"/>
		<line fill="none" stroke="#1D1D1B" stroke-width="0.3" stroke-linejoin="round" x1="21.4" y1="-12.1" x2="93.4" y2="-84.1"/>
		<line fill="none" stroke="#1D1D1B" stroke-width="0.3" stroke-linejoin="round" x1="21.4" y1="-6.1" x2="99.4" y2="-84.1"/>
		<line fill="none" stroke="#1D1D1B" stroke-width="0.3" stroke-linejoin="round" x1="21.4" y1="-0.1" x2="105.4" y2="-84.1"/>
		<line fill="none" stroke="#1D1D1B" stroke-width="0.3" stroke-linejoin="round" x1="27.4" y1="-0.1" x2="105.4" y2="-78.1"/>
		<line fill="none" stroke="#1D1D1B" stroke-width="0.3" stroke-linejoin="round" x1="33.4" y1="-0.1" x2="105.4" y2="-72.1"/>
		<line fill="none" stroke="#1D1D1B" stroke-width="0.3" stroke-linejoin="round" x1="39.4" y1="-0.1" x2="105.4" y2="-66.1"/>
		<line fill="none" stroke="#1D1D1B" stroke-width="0.3" stroke-linejoin="round" x1="45.4" y1="-0.1" x2="105.4" y2="-60.1"/>
		<line fill="none" stroke="#1D1D1B" stroke-width="0.3" stroke-linejoin="round" x1="51.4" y1="-0.1" x2="105.4" y2="-54.1"/>
		<line fill="none" stroke="#1D1D1B" stroke-width="0.3" stroke-linejoin="round" x1="57.4" y1="-0.1" x2="105.4" y2="-48.1"/>
		<line fill="none" stroke="#1D1D1B" stroke-width="0.3" stroke-linejoin="round" x1="63.4" y1="-0.1" x2="105.4" y2="-42.1"/>
		<line fill="none" stroke="#1D1D1B" stroke-width="0.3" stroke-linejoin="round" x1="69.4" y1="-0.1" x2="105.4" y2="-36.1"/>
		<line fill="none" stroke="#1D1D1B" stroke-width="0.3" stroke-linejoin="round" x1="75.4" y1="-0.1" x2="105.4" y2="-30.1"/>
		<line fill="none" stroke="#1D1D1B" stroke-width="0.3" stroke-linejoin="round" x1="81.4" y1="-0.1" x2="105.4" y2="-24.1"/>
		<line fill="none" stroke="#1D1D1B" stroke-width="0.3" stroke-linejoin="round" x1="87.4" y1="-0.1" x2="105.4" y2="-18.1"/>
		<line fill="none" stroke="#1D1D1B" stroke-width="0.3" stroke-linejoin="round" x1="93.4" y1="-0.1" x2="105.4" y2="-12.1"/>
		<line fill="none" stroke="#1D1D1B" stroke-width="0.3" stroke-linejoin="bevel" x1="0.1" y1="-63.1" x2="10.1" y2="-73.1"/>
	</g>
</pattern>
<g id="Text">
</g>
<g id="Artwork">
	<g id="Cup">
		<path id="Cup_Base" fill="#FFFFFF" stroke="#1D1D1B" stroke-width="1.7115" d="M7.6,38.4l21,205.6c0,0,48.9,11.2,94.3-1l18-205.1
			C141,37.8,116.8,30.7,7.6,38.4z"/>
	</g>
	<g id="Sleeve_1_">
		<path id="Sleeve" fill="#FFFFFF" stroke="#1D1D1B" stroke-width="2" d="M9.8,69c-2-2.5,122.9-5.6,129-1
			c-0.5,0.5-4.6,95.3-6.6,101.5c0.5,0.5-59.7,11.2-112.7,0.5C19.5,170,11.9,71.6,9.8,69z"/>
		<pattern  id="Left_Shadow_2_" xlink:href="#Diagonal_Lines" patternTransform="matrix(1 0 0 1 -2.5107 -50.9893)">
		</pattern>
		<polygon id="Left_Shadow" fill="url(#Left_Shadow_2_)" points="23,166.1 31.7,168.8 26.4,70.8 13.7,72.1 		"/>
		<pattern  id="Right_Shadow_2_" xlink:href="#Diagonal_Lines" patternTransform="matrix(1 0 0 1 -2.5107 -50.9893)">
		</pattern>
		<polygon id="Right_Shadow" fill="url(#Right_Shadow_2_)" points="128.4,166.1 119.7,168.8 120.4,70.8 134.4,72.1 		"/>
	</g>
	<g id="Lid">
		<path id="Left_Shadow_1_" fill="#1D1D1B" d="M8,40.9c0,0-18.2-1,0.2-2.8C8.2,38.4,8,40.9,8,40.9z"/>
		<path id="Right_Shadow_1_" fill="#1D1D1B" d="M140.6,40.1c0,0,17.2-1.8,0.4-3C141.2,37.2,140.6,40.1,140.6,40.1z"/>
		<path id="Lid_1_" fill="#FFFFFF" stroke="#1D1D1B" stroke-width="2" d="M1.5,38.6c0,0,3-4.8,2.2-6.7c-0.8-2-1-3.8,3.4-5.7
			c0.2-0.2,2.4-10.7,3-15.7C15.6,8,28.9,5.9,45.3,5.3c16.5-0.6,63.2-0.4,67,0c3.8,0.4,19.4,0.2,27,4.4c0.6,4.2,2.2,15.5,2.2,15.5
			s7.7,1.4,3.6,6.7c0.8,2.2,1.6,4.8,2.4,5.7C130.7,35,23.7,35,1.5,38.6z"/>
		<path id="Lip_Shadow" fill="#1D1D1B" d="M140.9,26.8c0,0,6,0.8,1.8,4.7c0-0.3-45.3-1-45.3-1L140.9,26.8z"/>
		<path fill="#0084AF" d="M114.1,96l-1.4-5.3c-12.1-2.2-26.3,1.7-26.3,1.7c-14.9-17.9-22.9-8.3-22.9-8.3c-5.2,4.3-0.4,8.5-0.4,8.5
			s7.8,5.3-2.2,4.8c-10-0.5-16.1,2.4-16.9,7c-0.9,4.6,3.6,8.2,3.6,8.2s2.7,1.6,2.2,4.6c-0.5,3-2.8,3-7.5,5c-4.7,2-6.9,5-7.4,7.8
			c-0.6,2.8,1.5,6.6,6.9,8.1c5.4,1.5,3,12.3,3,12.3s-1.5,7,6.1,8.2c7.6,1.2,8.5-6.9,8.5-6.9s0.4-3.5,3.4-3.4c3,0.1,4,3.4,4,3.4
			s0.7,3.2,5.7,2.2c5-0.9,4.1-10.4,4.1-10.4s-1.3-3.3,2.2-4.5c3.5-1.3,5.2,2.1,5.2,2.1s3.9,4.7,9.2,1.8c5.3-2.9,1.9-10.1,1.9-10.1
			s-1.4-4.8-1.3-5.5c0.1-0.6,0.3-2.5,4.1-0.7c0,0,12.1,4.5,12-6.6c-0.1-11.1-14-33.6-38.5-5.5C81.2,86.9,114.1,96,114.1,96z"/>
	</g>
</g>
</svg>
